mtllib materials.mtl
v -0.02698608 -0.07150114 0.01734602
v -0.02900332 -0.0582912 -0.02801657
v -0.02903128 -0.05810809 -0.02864552
v -0.06010434 -0.0524087 -0.005561292
v 0.02512747 -0.07598603 0.008879066
v 0.01505398 -0.03753531 0.03172123
v 0.02799098 -0.05173182 0.009914756
v 0.003986955 -0.08412278 -0.003825247
v -0.06943477 -0.04702973 -0.01201504
v 0.005078472 -0.04627144 0.03190088
v -0.02567601 0.005568862 0.06042683
v 0.006815322 -0.03516018 -0.05752057
v -0.01980034 -0.06078279 -0.03905642
v -0.001383193 -0.07350361 0.02188826
v -0.03083749 -0.04318786 -0.05059868
v -0.02068724 -0.05991256 -0.04036999
v 0.007577598 -0.02196407 -0.07199216
v 0.02267531 -0.06651068 -0.00323391
v -0.05381098 -0.01967216 0.03086013
v 0.02466689 -0.04161274 -0.01939982
v -0.0377255 -0.04483497 0.03276849
v -0.03081467 0.06477404 -0.01571387
v -0.04380447 0.05785608 -0.0168072
v -0.04016052 0.05757749 -0.02383846
v -0.04376176 0.05888128 -0.009332359
v -0.04004382 0.06037831 -0.003416777
v -0.03364689 0.06194592 -0.0006455183
v -0.02628501 0.06316435 -0.001761138
v -0.01993079 0.06370687 -0.00646472
v -0.01628684 0.06342816 -0.01349592
v -0.01632956 0.06240296 -0.02097082
v -0.02004749 0.06090605 -0.0268864
v -0.02644442 0.05933833 -0.02965766
v -0.03380631 0.05812001 -0.02854204
v -0.05368949 0.04350877 -0.01664412
v -0.04684111 0.04298496 -0.02985847
v -0.05360921 0.04543543 -0.002595961
v -0.04662178 0.04824877 0.008521736
v -0.03459948 0.05119514 0.01372999
v -0.02076367 0.0534848 0.01163334
v -0.008821644 0.05450439 0.002793431
v -0.001973264 0.05398071 -0.01042092
v -0.002053544 0.05205405 -0.02446908
v -0.009040967 0.04924059 -0.03558677
v -0.02106327 0.04629433 -0.04079503
v -0.03489909 0.04400456 -0.03869832
v -0.05927743 0.0234623 -0.01524419
v -0.05005063 0.0227567 -0.03304785
v -0.05916927 0.02605808 0.003682792
v -0.04975514 0.02984869 0.01866162
v -0.03355753 0.03381813 0.02567875
v -0.0149166 0.03690314 0.02285385
v 0.001172848 0.03827679 0.01094395
v 0.01039965 0.03757119 -0.00685972
v 0.01029149 0.03497541 -0.0257867
v 0.0008773506 0.03118491 -0.04076552
v -0.01532025 0.02721536 -0.04778266
v -0.03396119 0.02413046 -0.04495776
v -0.05989432 0.0001348257 -0.01277632
v -0.04940199 -0.0006674528 -0.03302193
v -0.05977133 0.003086686 0.008746624
v -0.04906597 0.007397175 0.02577996
v -0.03064673 0.01191115 0.03375947
v -0.00944905 0.01541913 0.0305472
v 0.008847199 0.01698124 0.01700372
v 0.01933953 0.01617897 -0.003241897
v 0.01921654 0.01322711 -0.02476484
v 0.008511178 0.008916616 -0.04179817
v -0.00990805 0.004402637 -0.04977769
v -0.03110576 0.0008946657 -0.04656535
v -0.05546575 -0.02366006 -0.009538174
v -0.04497342 -0.02446234 -0.02978379
v -0.05534276 -0.0207082 0.01198477
v -0.0446374 -0.01639771 0.0290181
v -0.02621817 -0.01188374 0.03699762
v -0.005020477 -0.008375764 0.03378534
v 0.01327577 -0.006813645 0.02024186
v 0.0237681 -0.007615924 -3.755093E-06
v 0.0236451 -0.01056778 -0.02152669
v 0.01293974 -0.01487827 -0.03856003
v -0.005479485 -0.01939225 -0.04653955
v -0.02667719 -0.02290022 -0.04332721
v -0.04652587 -0.04505229 -0.005920351
v -0.03729907 -0.04575789 -0.02372402
v -0.04641771 -0.04245651 0.01300663
v -0.03700358 -0.03866601 0.02798545
v -0.02080598 -0.03469646 0.03500259
v -0.002165042 -0.03161156 0.03217769
v 0.0139244 -0.03023779 0.02026778
v 0.0231512 -0.03094339 0.002464116
v 0.02304305 -0.03353918 -0.01646286
v 0.01362891 -0.03732979 -0.03144169
v -0.002568685 -0.04129922 -0.03845882
v -0.02120963 -0.04438424 -0.03563392
v -0.03415297 -0.06146181 -0.002359152
v -0.02730458 -0.06198549 -0.0155735
v -0.03407269 -0.05953515 0.01168901
v -0.02708526 -0.05672169 0.0228067
v -0.01506296 -0.05377543 0.02801496
v -0.001227148 -0.05148566 0.02591825
v 0.01071488 -0.05046606 0.0170784
v 0.01756326 -0.05098975 0.00386405
v 0.01748298 -0.05291653 -0.01018411
v 0.01049556 -0.05572987 -0.02130181
v -0.001526743 -0.05867624 -0.02651006
v -0.01536257 -0.0609659 -0.02441341
v -0.01983938 -0.07090926 0.0007158518
v -0.01619543 -0.07118797 -0.006315351
v -0.01979666 -0.06988406 0.008190751
v -0.01607873 -0.06838715 0.01410633
v -0.009681799 -0.06681943 0.01687759
v -0.002319917 -0.06560111 0.01576197
v 0.004034296 -0.06505859 0.01105839
v 0.007678241 -0.06533718 0.004027128
v 0.007635526 -0.06636238 -0.003447711
v 0.003917597 -0.06785941 -0.009363294
v -0.00247933 -0.06942713 -0.01213455
v -0.009841219 -0.07064545 -0.01101893
v -0.005311556 -0.07225513 0.0029338
v 0.008938558 0.0120486 0.02457523
v 0.02467953 -0.01417518 0.01088285
v 0.02030413 -0.01567376 0.008982837
v 0.004563183 0.01055002 0.02267522
v 0.01989965 0.003679872 -0.008650005
v 0.02588768 0.008863688 -0.01377213
v 0.0186803 0.02847826 -0.01951998
v 0.01606189 0.02425277 0.001250386
v 0.0128151 0.02253461 2.163649E-05
v 0.0154335 0.0267601 -0.02074879
v 0.02404255 0.01646328 -0.01688814
v 0.02079573 0.014745 -0.01811689
v 0.004323378 0.01765323 0.02629125
v 0.01344242 0.02494538 0.008408606
v 0.01023096 0.02355373 0.006749272
v 0.001111895 0.01626158 0.02463186
v 3.052503E-05 0.03017521 0.02409756
v -0.003180958 0.02878356 0.02243823
vn -0.3496584 -0.9035729 -0.2475784
vn 0.8173488 -0.1205568 0.5633893
vn 0.01205643 -0.8510225 0.524991
vn 0.1489609 0.8667805 -0.4759227
vn 0.2961149 -0.3196165 0.9000898
vn 0.2475057 -0.7223856 -0.6456782
vn 0.374121 -0.3969341 0.8381392
vn 0 0 0
vn 0.5646506 -0.6244453 -0.5396648
vn -0.03328472 0.9366419 0.3487036
vn -0.6689973 -0.4916054 0.5574648
vn 0.2668374 0.6960472 -0.6665705
vn -0.6172023 0.5499797 -0.5626578
vn 0.956692 -0.1012958 -0.2729104
vn -0.1895738 -0.4766218 0.8584252
vn 0.3672154 -0.4020646 0.8387474
vn 0.1986658 -0.379391 0.9036564
vn -0.08201115 -0.996366 0.02300064
vn 0.8552846 -0.3285634 -0.4006681
vn 0.1265294 0.942008 0.3108239
vn 0.9657314 -0.1912057 -0.1755102
vn -0.5537433 -0.294927 0.7787085
vn 0.04023568 -0.4880529 0.8718864
vn -0.8151228 -0.4987223 0.2947056
vn -0.3115724 0.8484547 -0.4278404
vn -0.3496584 -0.9035729 -0.2475784
vn -0.4945587 -0.8401389 -0.2226624
vn 0.2475057 -0.7223856 -0.6456782
vn -0.4120271 -0.7690009 -0.4887448
vn -0.1324854 -0.5744249 -0.8077648
vn -0.1813565 0.9744359 -0.1326066
vn -0.1813565 0.9744359 -0.1326066
vn -0.1813565 0.9744359 -0.1326066
vn -0.1813565 0.9744359 -0.1326066
vn -0.1813565 0.9744359 -0.1326066
vn -0.1813565 0.9744359 -0.1326066
vn -0.1813565 0.9744359 -0.1326066
vn -0.1813565 0.9744359 -0.1326066
vn -0.1813565 0.9744359 -0.1326066
vn -0.1813565 0.9744359 -0.1326066
vn -0.1813565 0.9744359 -0.1326066
vn -0.1813565 0.9744359 -0.1326066
vn -0.423291 0.8390532 -0.3417811
vn -0.5003026 0.8463914 -0.1825345
vn -0.4889222 0.8722928 -0.007766924
vn -0.3921992 0.9098171 0.1356928
vn -0.2360505 0.9489098 0.2094048
vn -0.06231604 0.9790959 0.1936179
vn 0.0824523 0.9922871 0.09256232
vn 0.1594638 0.9849489 -0.06668433
vn 0.1480834 0.9590476 -0.2414519
vn 0.05136047 0.9215232 -0.3849116
vn -0.1047882 0.8824306 -0.4586236
vn -0.2785228 0.8522444 -0.4428367
vn -0.6141704 0.6024684 -0.5097319
vn -0.7589048 0.6162597 -0.2104462
vn -0.7375166 0.6649384 0.1180095
vn -0.5557369 0.7354611 0.3876256
vn -0.2622734 0.8089312 0.5261589
vn 0.06424068 0.8656625 0.4964893
vn 0.3363161 0.890454 0.3065668
vn 0.4810505 0.8766627 0.007280975
vn 0.4596623 0.827984 -0.3211745
vn 0.2778826 0.7574614 -0.5907906
vn -0.01558088 0.6839913 -0.7293238
vn -0.3420952 0.6272599 -0.6996543
vn -0.7309718 0.2932169 -0.6162014
vn -0.9259718 0.3117979 -0.2129748
vn -0.8971557 0.3773825 0.2295522
vn -0.6522445 0.4723974 0.5928051
vn -0.2568621 0.5713835 0.7794504
vn 0.183049 0.6478174 0.7394767
vn 0.5496153 0.6812189 0.4835948
vn 0.7446154 0.6626379 0.08036818
vn 0.7157992 0.5970533 -0.3621588
vn 0.470888 0.5020384 -0.7254116
vn 0.07550575 0.4030523 -0.9120569
vn -0.3644058 0.3266183 -0.8720831
vn -0.7596071 -0.0514008 -0.648348
vn -0.981353 -0.03027131 -0.1898157
vn -0.9485845 0.04430876 0.3134076
vn -0.6700818 0.1523557 0.7264835
vn -0.2204695 0.2649185 0.9387287
vn 0.2797789 0.351836 0.8932723
vn 0.6966227 0.3898187 0.6022941
vn 0.9183686 0.3686892 0.1437617
vn 0.8856 0.2941091 -0.3594614
vn 0.6070974 0.1860622 -0.7725372
vn 0.1574853 0.07349942 -0.9847824
vn -0.3427637 -0.01341813 -0.9393259
vn -0.6966226 -0.3898188 -0.6022941
vn -0.9183686 -0.3686893 -0.1437619
vn -0.8856 -0.2941092 0.3594613
vn -0.6070973 -0.1860622 0.7725372
vn -0.1574851 -0.07349947 0.9847825
vn 0.3427634 0.01341799 0.939326
vn 0.7596071 0.0514007 0.6483479
vn 0.981353 0.03027119 0.1898155
vn 0.9485845 -0.04430887 -0.3134076
vn 0.6700818 -0.1523558 -0.7264834
vn 0.2204697 -0.2649186 -0.9387286
vn -0.2797792 -0.3518361 -0.893272
vn -0.5496153 -0.681219 -0.4835949
vn -0.7446153 -0.662638 -0.0803683
vn -0.7157991 -0.5970534 0.3621588
vn -0.470888 -0.5020385 0.7254117
vn -0.0755056 -0.4030524 0.9120569
vn 0.3644055 -0.3266185 0.8720832
vn 0.7309718 -0.293217 0.6162014
vn 0.9259718 -0.311798 0.2129747
vn 0.8971556 -0.3773826 -0.2295522
vn 0.6522446 -0.4723975 -0.592805
vn 0.2568622 -0.5713835 -0.7794502
vn -0.1830492 -0.6478176 -0.7394765
vn -0.3363161 -0.890454 -0.3065668
vn -0.4810505 -0.8766627 -0.007281141
vn -0.4596623 -0.827984 0.3211745
vn -0.2778826 -0.7574614 0.5907906
vn 0.01558095 -0.6839912 0.7293239
vn 0.342095 -0.6272599 0.6996543
vn 0.6141704 -0.6024684 0.5097318
vn 0.7589048 -0.6162598 0.210446
vn 0.7375166 -0.6649384 -0.1180095
vn 0.5557369 -0.7354611 -0.3876256
vn 0.2622734 -0.8089312 -0.5261588
vn -0.06424088 -0.8656626 -0.4964892
vn -0.08245215 -0.9922872 -0.09256223
vn -0.1594637 -0.984949 0.0666843
vn -0.1480833 -0.9590476 0.2414518
vn -0.05136034 -0.9215233 0.3849115
vn 0.1047883 -0.8824307 0.4586235
vn 0.2785227 -0.8522446 0.4428366
vn 0.423291 -0.8390533 0.341781
vn 0.5003024 -0.8463916 0.1825345
vn 0.4889221 -0.8722929 0.007766974
vn 0.3921991 -0.9098172 -0.1356927
vn 0.2360506 -0.9489098 -0.2094046
vn 0.062316 -0.9790959 -0.1936178
vn -0.1749498 -0.536181 0.825774
vn 0.483251 -0.5840788 -0.6521659
vn -0.190694 0.9351777 -0.2984606
vn -0.8720835 -0.3394062 -0.352525
vn 0.8713136 0.3365239 0.3571615
vn 0.05063144 -0.7309473 -0.6805531
vn -0.7696996 0.5110265 -0.382642
vn -0.4976345 0.8600941 0.1122407
vn 0.2636715 -0.8388451 0.4762519
vn 0.3710666 -0.03763863 -0.927843
vn -0.8778876 -0.4354433 -0.1992545
vn 0.8778874 0.4354434 0.1992557
vn 0.4502482 -0.8833019 -0.1305929
vn -0.1606381 0.8869691 -0.4329907
vn -0.4585199 -0.001509504 0.8886828
vn -0.7655671 -0.3562985 -0.535685
vn 0.7655678 0.3562986 0.535684
usemtl mat10
f 4//1 3//1 2//1 1//1
f 7//2 6//2 5//2
f 1//3 8//3 5//3
f 6//4 7//4 9//4
f 6//5 11//5 10//5
f 13//6 12//6 8//6
f 10//7 14//7 5//7
f 16//8 2//8 3//8 15//8
f 18//9 5//9 8//9 12//9 17//9
f 7//10 17//10 9//10
f 4//11 1//11 19//11 9//11
f 9//12 11//12 6//12
f 17//13 15//13 9//13
f 18//14 7//14 5//14
f 11//15 1//15 14//15
f 5//16 6//16 10//16
f 14//17 10//17 11//17
f 5//18 14//18 1//18
f 18//19 17//19 20//19
f 7//20 20//20 17//20
f 18//21 20//21 7//21
f 21//22 11//22 19//22
f 11//23 21//23 1//23
f 1//24 21//24 19//24
f 9//25 19//25 11//25
f 4//26 9//26 3//26
f 16//27 13//27 8//27 1//27 2//27
f 13//28 16//28 17//28 12//28
f 9//29 15//29 3//29
f 16//30 15//30 17//30
usemtl mat12
f 24//31 23//31 22//31
f 23//32 25//32 22//32
f 25//33 26//33 22//33
f 26//34 27//34 22//34
f 27//35 28//35 22//35
f 28//36 29//36 22//36
f 29//37 30//37 22//37
f 30//38 31//38 22//38
f 31//39 32//39 22//39
f 32//40 33//40 22//40
f 33//41 34//41 22//41
f 34//42 24//42 22//42
f 36//43 35//43 23//43 24//43
f 35//44 37//44 25//44 23//44
f 37//45 38//45 26//45 25//45
f 38//46 39//46 27//46 26//46
f 39//47 40//47 28//47 27//47
f 40//48 41//48 29//48 28//48
f 41//49 42//49 30//49 29//49
f 42//50 43//50 31//50 30//50
f 43//51 44//51 32//51 31//51
f 44//52 45//52 33//52 32//52
f 45//53 46//53 34//53 33//53
f 46//54 36//54 24//54 34//54
f 48//55 47//55 35//55 36//55
f 47//56 49//56 37//56 35//56
f 49//57 50//57 38//57 37//57
f 50//58 51//58 39//58 38//58
f 51//59 52//59 40//59 39//59
f 52//60 53//60 41//60 40//60
f 53//61 54//61 42//61 41//61
f 54//62 55//62 43//62 42//62
f 55//63 56//63 44//63 43//63
f 56//64 57//64 45//64 44//64
f 57//65 58//65 46//65 45//65
f 58//66 48//66 36//66 46//66
f 60//67 59//67 47//67 48//67
f 59//68 61//68 49//68 47//68
f 61//69 62//69 50//69 49//69
f 62//70 63//70 51//70 50//70
f 63//71 64//71 52//71 51//71
f 64//72 65//72 53//72 52//72
f 65//73 66//73 54//73 53//73
f 66//74 67//74 55//74 54//74
f 67//75 68//75 56//75 55//75
f 68//76 69//76 57//76 56//76
f 69//77 70//77 58//77 57//77
f 70//78 60//78 48//78 58//78
f 72//79 71//79 59//79 60//79
f 71//80 73//80 61//80 59//80
f 73//81 74//81 62//81 61//81
f 74//82 75//82 63//82 62//82
f 75//83 76//83 64//83 63//83
f 76//84 77//84 65//84 64//84
f 77//85 78//85 66//85 65//85
f 78//86 79//86 67//86 66//86
f 79//87 80//87 68//87 67//87
f 80//88 81//88 69//88 68//88
f 81//89 82//89 70//89 69//89
f 82//90 72//90 60//90 70//90
f 84//91 83//91 71//91 72//91
f 83//92 85//92 73//92 71//92
f 85//93 86//93 74//93 73//93
f 86//94 87//94 75//94 74//94
f 87//95 88//95 76//95 75//95
f 88//96 89//96 77//96 76//96
f 89//97 90//97 78//97 77//97
f 90//98 91//98 79//98 78//98
f 91//99 92//99 80//99 79//99
f 92//100 93//100 81//100 80//100
f 93//101 94//101 82//101 81//101
f 94//102 84//102 72//102 82//102
f 96//103 95//103 83//103 84//103
f 95//104 97//104 85//104 83//104
f 97//105 98//105 86//105 85//105
f 98//106 99//106 87//106 86//106
f 99//107 100//107 88//107 87//107
f 100//108 101//108 89//108 88//108
f 101//109 102//109 90//109 89//109
f 102//110 103//110 91//110 90//110
f 103//111 104//111 92//111 91//111
f 104//112 105//112 93//112 92//112
f 105//113 106//113 94//113 93//113
f 106//114 96//114 84//114 94//114
f 108//115 107//115 95//115 96//115
f 107//116 109//116 97//116 95//116
f 109//117 110//117 98//117 97//117
f 110//118 111//118 99//118 98//118
f 111//119 112//119 100//119 99//119
f 112//120 113//120 101//120 100//120
f 113//121 114//121 102//121 101//121
f 114//122 115//122 103//122 102//122
f 115//123 116//123 104//123 103//123
f 116//124 117//124 105//124 104//124
f 117//125 118//125 106//125 105//125
f 118//126 108//126 96//126 106//126
f 119//127 107//127 108//127
f 119//128 109//128 107//128
f 119//129 110//129 109//129
f 119//130 111//130 110//130
f 119//131 112//131 111//131
f 119//132 113//132 112//132
f 119//133 114//133 113//133
f 119//134 115//134 114//134
f 119//135 116//135 115//135
f 119//136 117//136 116//136
f 119//137 118//137 117//137
f 119//138 108//138 118//138
usemtl mat7
f 123//139 122//139 121//139 120//139
f 122//140 124//140 121//140
f 124//141 123//141 120//141
f 124//142 122//142 123//142
f 120//143 121//143 125//143
f 124//144 125//144 121//144
f 120//145 125//145 124//145
usemtl mat23
f 129//146 128//146 127//146 126//146
f 128//147 131//147 130//147 127//147
f 131//148 129//148 126//148 130//148
f 131//149 128//149 129//149
f 126//150 127//150 130//150
f 135//151 134//151 133//151 132//151
f 134//152 137//152 136//152 133//152
f 137//153 135//153 132//153 136//153
f 137//154 134//154 135//154
f 132//155 133//155 136//155
